<svg width="300" height="300" viewBox="0 0 300 300" preserveAspectRatio="meet meet">

        <!-- <circle  
          cx="{{circle.x}}" 
          cy="{{circle.y}}" 
          r="{{scaleSmall}}">
        </circle> -->
        <path ng-repeat="circle in circles" transform="translate({{circle.x}},{{circle.y}}) scale({{scaleSmall}})" d="m 151.37407,45.37037 c -55.399996,0 -100.299996,44.9 -100.299996,100.3 0,55.4 44.9,100.3 100.299996,100.3 55.4,0 100.3,-44.9 100.3,-100.3 0,-55.4 -44.9,-100.3 -100.3,-100.3 z m 51.3,80.6 c 0,7 -5.6,12.6 -12.6,12.6 -6.9,0 -12.6,-5.6 -12.6,-12.6 0,-6.9 5.7,-12.6 12.6,-12.6 6.9,0 12.6,5.6 12.6,12.6 z m -53.8,-11.9 c 3.9,-2.2 7.1,-5.7 8.8,-10.3 1.6,-4.6 1.5,-9.3 -0.1,-13.5 l -0.8,-2.2 c -0.9,-2.6 -0.9,-5.6 0.1,-8.4 2.4,-6.6 9.6,-9.9 16.1,-7.5 l 0,0 c 6.5,2.4 9.9,9.6 7.5,16.1 -1.1,2.8 -3,5 -5.4,6.5 l -2,1.1 c -3.9,2.2 -7.1,5.8 -8.8,10.3 -1.7,4.5 -1.5,9.3 0.1,13.5 l 0.8,2.2 c 0.9,2.6 0.9,5.6 -0.1,8.4 -2.4,6.5 -9.6,9.9 -16.1,7.5 -6.5,-2.4 -9.9,-9.6 -7.5,-16.1 1,-2.8 2.9,-5.1 5.3,-6.5 l 2.1,-1.1 z m -44,7.6 c 1,-2.8 2.9,-5.1 5.3,-6.5 l 2,-1.1 c 3.9,-2.2 7.1,-5.7 8.8,-10.3 1.6,-4.6 1.5,-9.3 -0.1,-13.5 l -0.8,-2.2 c -0.9,-2.6 -0.9,-5.6 0.1,-8.4 2.4,-6.6 9.6,-9.9 16.1,-7.5 l 0,0 c 6.5,2.4 9.9,9.6 7.5,16.1 -1.1,2.8 -3,5 -5.4,6.5 l -2,1.1 c -3.9,2.2 -7.1,5.8 -8.8,10.3 -1.7,4.5 -1.5,9.3 0.1,13.5 l 0.8,2.2 c 0.9,2.6 0.9,5.6 -0.1,8.4 -2.4,6.5 -9.6,9.9 -16.1,7.5 -6.4,-2.4 -9.8,-9.6 -7.4,-16.1 z m -0.8,43.3 c 0,-7 5.6,-12.6 12.6,-12.6 6.9,0 12.6,5.6 12.6,12.6 0,6.9 -5.7,12.6 -12.6,12.6 -6.9,0 -12.6,-5.6 -12.6,-12.6 z m 53.8,12 c -3.9,2.2 -7.1,5.7 -8.8,10.3 -1.6,4.6 -1.5,9.3 0.1,13.5 l 0.8,2.2 c 0.9,2.6 0.9,5.6 -0.1,8.4 -2.4,6.6 -9.6,9.9 -16.1,7.5 l 0,0 c -6.5,-2.4 -9.9,-9.6 -7.5,-16.1 1.1,-2.8 3,-5 5.4,-6.5 l 2,-1.1 c 3.9,-2.2 7.1,-5.8 8.8,-10.3 1.7,-4.5 1.5,-9.3 -0.1,-13.5 l -0.8,-2.2 c -0.9,-2.6 -0.9,-5.6 0.1,-8.4 2.4,-6.5 9.6,-9.9 16.1,-7.5 6.5,2.4 9.9,9.6 7.5,16.1 -1,2.8 -2.9,5.1 -5.3,6.5 l -2.1,1.1 z m 44.1,-7.7 c -1,2.8 -2.9,5.1 -5.3,6.5 l -2,1.1 c -3.9,2.2 -7.1,5.7 -8.8,10.3 -1.6,4.6 -1.5,9.3 0.1,13.5 l 0.8,2.2 c 0.9,2.6 0.9,5.6 -0.1,8.4 -2.4,6.6 -9.6,9.9 -16.1,7.5 l 0,0 c -6.5,-2.4 -9.9,-9.6 -7.5,-16.1 1.1,-2.8 3,-5 5.4,-6.5 l 2,-1.1 c 3.9,-2.2 7.1,-5.8 8.8,-10.3 1.6,-4.5 1.5,-9.3 -0.1,-13.5 l -0.8,-2.2 c -0.9,-2.6 -0.9,-5.6 0.1,-8.4 2.4,-6.5 9.6,-9.9 16.1,-7.5 6.4,2.4 9.8,9.6 7.4,16.1 z"></path>
  </svg>